# xmcd CD database file
#
# Track frame offsets:
#	150
#	25266
#	66837
#	90321
#	109971
#	142628
#	190743
#	205646
#	223460
#	250910
#	268624
#	282718
#
# Disc length: 4173 seconds
#
# Revision: 0
# Processed by: cddbd v1.5.1PL0 Copyright (c) Steve Scherf et al.
# Submitted via: CDex 1.51
#
DISCID=b3104b0c
DTITLE=Various Artist - Shibuya Jazz Classics -Gilles Peterson Collection (Trio)
DYEAR=1900
DGENRE=Jazz
TTITLE0=Dee Dee Bridgewater - Love From The Sun
TTITLE1=Eddie Gomez - Down Stretch
TTITLE2=Richard Beirach - Tokyo
TTITLE3=Helen Merrill - Maiden Voyage
TTITLE4=Imada Masaru - Nowin
TTITLE5=Ryo Fukui Trio - Early Summer
TTITLE6=Irene Kral - You Are Sunshine Of My Life
TTITLE7=Lorez Alexandria - Send In The Clowns
TTITLE8=Nobuo Hara And His Sharps and Fl - Sohran Bushi
TTITLE9=Kunihiko Sugano - Midnight Sun Never Set
TTITLE10=Dee Dee Bridgewater - Little B's Poem
TTITLE11=Koichi Matsukaze - Under Construction
EXTD=
EXTT0=
EXTT1=
EXTT2=
EXTT3=
EXTT4=
EXTT5=
EXTT6=
EXTT7=
EXTT8=
EXTT9=
EXTT10=
EXTT11=
PLAYORDER=
